<svg preserveAspectRatio="none" width="100%" height="100%" overflow="visible" style="display: block;" viewBox="0 0 328 328" fill="none" xmlns="http://www.w3.org/2000/svg">
<g id="chain 2" clip-path="url(#clip0_0_9)">
<g id="Vector" filter="url(#filter0_df_0_9)">
<path d="M373.782 272.182C373.823 255.581 359.305 241.054 342.68 241.071H296.165C281.704 241.071 269.622 251.038 266.149 264.428H217.572C213.94 251.317 201.586 241.046 187.646 241.067H141.132C126.663 241.067 114.588 251.034 111.12 264.428H62.543C58.8981 251.304 46.5612 241.067 32.6171 241.067H-13.8892C-22.1958 241.067 -30.0104 244.297 -35.8939 250.181C-41.7692 256.056 -45.0082 263.875 -45 272.182C-45.0123 280.484 -41.7733 288.295 -35.8898 294.178C-30.0063 300.062 -22.1958 303.301 -13.8933 303.288H32.6212C47.0901 303.288 59.1646 293.321 62.6332 279.926H111.116C112.481 285.256 115.142 290.185 119.139 294.182C125.011 300.053 132.825 303.288 141.14 303.288L187.642 303.28C195.953 303.28 203.763 300.049 209.643 294.174C213.636 290.181 216.297 285.252 217.667 279.926H266.149C267.518 285.252 270.179 290.181 274.177 294.178C280.048 300.049 287.859 303.288 296.173 303.288L342.676 303.28C350.994 303.292 358.809 300.062 364.684 294.182C370.568 288.299 373.807 280.48 373.795 272.182H373.782ZM32.6212 287.581H-13.8933C-22.1056 287.589 -29.2929 280.402 -29.2806 272.19C-29.2888 268.069 -27.6816 264.203 -24.7788 261.3C-21.8719 258.393 -18.0056 256.786 -13.8851 256.786L32.6171 256.778C36.7376 256.786 40.6039 258.385 43.5108 261.292C44.421 262.202 44.9622 263.346 45.6018 264.424H40.362C36.0775 264.424 32.613 267.893 32.613 272.173C32.613 276.454 36.0816 279.922 40.362 279.922H45.61C42.9245 284.416 38.2218 287.577 32.6212 287.577V287.581ZM187.646 287.569L141.144 287.577C135.744 287.569 131.046 284.354 128.287 279.935H133.391C137.676 279.935 141.14 276.466 141.14 272.186C141.14 267.901 137.671 264.437 133.391 264.437H128.143C130.837 259.951 135.535 256.786 141.136 256.786H187.65C191.759 256.786 195.625 258.389 198.532 261.3C199.446 262.214 199.987 263.354 200.635 264.433H195.404C191.119 264.433 187.655 267.901 187.655 272.182C187.655 276.466 191.123 279.931 195.404 279.931H200.639C199.987 281.009 199.446 282.149 198.532 283.063C195.629 285.97 191.763 287.573 187.646 287.569ZM342.676 287.577L296.173 287.585C290.774 287.573 286.067 284.363 283.308 279.935H288.42C292.705 279.935 296.169 276.466 296.169 272.186C296.169 267.901 292.701 264.437 288.42 264.437H283.172C285.866 259.951 290.565 256.794 296.165 256.794H342.68C346.788 256.794 350.654 258.393 353.565 261.304C356.476 264.215 358.075 268.082 358.071 272.19C358.079 276.302 356.476 280.164 353.561 283.079C350.662 285.982 346.792 287.589 342.676 287.585V287.577Z" fill="url(#paint0_linear_0_9)"/>
<path d="M-13.8896 241.567H32.6172C46.3187 241.567 58.4718 251.637 62.0615 264.563L62.1631 264.929H111.507L111.604 264.554C115.017 251.371 126.9 241.567 141.132 241.567H187.647C201.344 241.547 213.513 251.649 217.091 264.562L217.192 264.929H266.536L266.633 264.554C270.051 251.375 281.941 241.571 296.165 241.571H342.68C359.029 241.554 373.322 255.857 373.282 272.18L373.281 272.682H373.289C373.173 280.661 370.003 288.157 364.331 293.828C358.55 299.614 350.863 302.792 342.677 302.781H342.676L296.173 302.788C287.991 302.788 280.308 299.602 274.53 293.824C270.601 289.895 267.982 285.048 266.633 279.802L266.537 279.426H217.279L217.183 279.802C215.834 285.048 213.214 289.895 209.289 293.821C203.504 299.602 195.821 302.78 187.643 302.781L141.14 302.788C132.957 302.788 125.27 299.606 119.493 293.828C115.564 289.899 112.944 285.052 111.6 279.802L111.504 279.426H62.2461L62.1494 279.801C58.7356 292.984 46.8528 302.788 32.6211 302.788H-13.8936C-22.0626 302.8 -29.7462 299.614 -35.5361 293.824C-41.3261 288.034 -44.5121 280.351 -44.5 272.182V272.181C-44.508 264.007 -41.3216 256.316 -35.54 250.534C-29.7505 244.745 -22.0635 241.567 -13.8896 241.567ZM296.165 256.294C290.364 256.294 285.514 259.565 282.743 264.179L282.289 264.937H288.42C292.424 264.937 295.669 268.178 295.669 272.186C295.669 276.19 292.428 279.435 288.42 279.435H282.407L282.883 280.199C285.714 284.743 290.567 288.072 296.172 288.085H296.174L342.176 288.077V288.085H342.675C346.792 288.089 350.673 286.531 353.632 283.709L353.915 283.433C356.829 280.518 358.475 276.683 358.567 272.586L358.571 272.189C358.575 267.948 356.923 263.955 353.919 260.95C350.914 257.946 346.92 256.294 342.68 256.294H296.165ZM-13.8848 256.286C-18.1381 256.286 -22.1314 257.946 -25.1318 260.947C-28.1277 263.942 -29.7882 267.935 -29.7803 272.189C-29.793 280.678 -22.382 288.088 -13.8936 288.08V288.081H33.1211V288.068C38.7005 287.886 43.3562 284.668 46.0391 280.179L46.4912 279.422H40.3623C36.358 279.422 33.1133 276.177 33.1133 272.173C33.1134 268.169 36.3542 264.924 40.3623 264.924H46.4795L46.0322 264.169C45.4246 263.145 44.8331 261.908 43.8643 260.939C40.8633 257.938 36.8702 256.286 32.6182 256.278H32.6172L-13.8848 256.286ZM141.136 256.286C135.335 256.286 130.485 259.566 127.715 264.179L127.26 264.937H133.391C137.395 264.937 140.64 268.178 140.64 272.186C140.64 276.19 137.399 279.435 133.391 279.435H127.385L127.862 280.199C130.693 284.734 135.538 288.069 141.144 288.077H141.145L187.646 288.069V288.068C191.896 288.072 195.889 286.417 198.886 283.416C199.857 282.445 200.45 281.211 201.067 280.19L201.525 279.431H195.403C191.399 279.431 188.154 276.19 188.154 272.182C188.154 268.178 191.395 264.933 195.403 264.933H201.519L201.063 264.175C200.449 263.152 199.857 261.918 198.886 260.947C195.885 257.942 191.891 256.286 187.65 256.286H141.136Z" stroke="var(--stroke-0, black)"/>
</g>
</g>
<defs>
<filter id="filter0_df_0_9" x="-52.3" y="237.567" width="433.395" height="78.0217" filterUnits="userSpaceOnUse" color-interpolation-filters="sRGB">
<feFlood flood-opacity="0" result="BackgroundImageFix"/>
<feColorMatrix in="SourceAlpha" type="matrix" values="0 0 0 0 0 0 0 0 0 0 0 0 0 0 0 0 0 0 127 0" result="hardAlpha"/>
<feOffset dy="5"/>
<feGaussianBlur stdDeviation="3.65"/>
<feComposite in2="hardAlpha" operator="out"/>
<feColorMatrix type="matrix" values="0 0 0 0 0 0 0 0 0 0 0 0 0 0 0 0 0 0 0.25 0"/>
<feBlend mode="normal" in2="BackgroundImageFix" result="effect1_dropShadow_0_9"/>
<feBlend mode="normal" in="SourceGraphic" in2="effect1_dropShadow_0_9" result="shape"/>
<feGaussianBlur stdDeviation="1.75" result="effect2_foregroundBlur_0_9"/>
</filter>
<linearGradient id="paint0_linear_0_9" x1="-45" y1="272.177" x2="373.795" y2="272.177" gradientUnits="userSpaceOnUse">
<stop stop-color="#FF7676"/>
<stop offset="1" stop-color="white"/>
</linearGradient>
<clipPath id="clip0_0_9">
<rect width="328" height="328" fill="white"/>
</clipPath>
</defs>
</svg>
